<mxfile host="app.diagrams.net" modified="2022-04-11T15:46:32.584Z" agent="5.0 (Windows)" etag="vVFFh1JUm2fhWSYqsh2E" version="16.0.0" type="github">
  <diagram id="Ng3hxRq8j4J8_AEsvm4x" name="Page-1">
    <mxGraphModel dx="1038" dy="564" grid="1" gridSize="10" guides="1" tooltips="1" connect="1" arrows="1" fold="1" page="1" pageScale="1" pageWidth="12000" pageHeight="3000" math="0" shadow="0">
      <root>
        <mxCell id="0" />
        <mxCell id="1" parent="0" />
        <mxCell id="dhoqeCK5XzEjdR1-9PBj-14" value="" style="rounded=1;whiteSpace=wrap;html=1;fillColor=#d5e8d4;strokeColor=#82b366;" vertex="1" parent="1">
          <mxGeometry x="390" y="150" width="140" height="60" as="geometry" />
        </mxCell>
        <mxCell id="dhoqeCK5XzEjdR1-9PBj-13" value="" style="rounded=1;whiteSpace=wrap;html=1;fillColor=#d5e8d4;strokeColor=#82b366;" vertex="1" parent="1">
          <mxGeometry x="190" y="150" width="140" height="60" as="geometry" />
        </mxCell>
        <mxCell id="dhoqeCK5XzEjdR1-9PBj-15" value="" style="edgeStyle=orthogonalEdgeStyle;rounded=0;orthogonalLoop=1;jettySize=auto;html=1;fontSize=20;" edge="1" parent="1" source="dhoqeCK5XzEjdR1-9PBj-1" target="dhoqeCK5XzEjdR1-9PBj-2">
          <mxGeometry relative="1" as="geometry" />
        </mxCell>
        <mxCell id="dhoqeCK5XzEjdR1-9PBj-1" value="" style="rounded=1;whiteSpace=wrap;html=1;fillColor=#ffe6cc;strokeColor=#d79b00;" vertex="1" parent="1">
          <mxGeometry x="80" y="160" width="40" height="40" as="geometry" />
        </mxCell>
        <mxCell id="dhoqeCK5XzEjdR1-9PBj-16" value="" style="edgeStyle=orthogonalEdgeStyle;rounded=0;orthogonalLoop=1;jettySize=auto;html=1;fontSize=20;" edge="1" parent="1" source="dhoqeCK5XzEjdR1-9PBj-2" target="dhoqeCK5XzEjdR1-9PBj-3">
          <mxGeometry relative="1" as="geometry" />
        </mxCell>
        <mxCell id="dhoqeCK5XzEjdR1-9PBj-2" value="" style="rounded=1;whiteSpace=wrap;html=1;fillColor=#dae8fc;strokeColor=#6c8ebf;" vertex="1" parent="1">
          <mxGeometry x="200" y="160" width="40" height="40" as="geometry" />
        </mxCell>
        <mxCell id="dhoqeCK5XzEjdR1-9PBj-17" value="" style="edgeStyle=orthogonalEdgeStyle;rounded=0;orthogonalLoop=1;jettySize=auto;html=1;fontSize=20;" edge="1" parent="1" source="dhoqeCK5XzEjdR1-9PBj-3" target="dhoqeCK5XzEjdR1-9PBj-6">
          <mxGeometry relative="1" as="geometry" />
        </mxCell>
        <mxCell id="dhoqeCK5XzEjdR1-9PBj-3" value="" style="rounded=1;whiteSpace=wrap;html=1;fillColor=#dae8fc;strokeColor=#6c8ebf;" vertex="1" parent="1">
          <mxGeometry x="280" y="160" width="40" height="40" as="geometry" />
        </mxCell>
        <mxCell id="dhoqeCK5XzEjdR1-9PBj-24" value="" style="edgeStyle=orthogonalEdgeStyle;rounded=0;orthogonalLoop=1;jettySize=auto;html=1;fontSize=20;" edge="1" parent="1" source="dhoqeCK5XzEjdR1-9PBj-4" target="dhoqeCK5XzEjdR1-9PBj-2">
          <mxGeometry relative="1" as="geometry" />
        </mxCell>
        <mxCell id="dhoqeCK5XzEjdR1-9PBj-4" value="" style="rounded=1;whiteSpace=wrap;html=1;fillColor=#dae8fc;strokeColor=#6c8ebf;" vertex="1" parent="1">
          <mxGeometry x="200" y="280" width="40" height="40" as="geometry" />
        </mxCell>
        <mxCell id="dhoqeCK5XzEjdR1-9PBj-22" value="" style="edgeStyle=orthogonalEdgeStyle;rounded=0;orthogonalLoop=1;jettySize=auto;html=1;fontSize=20;" edge="1" parent="1" source="dhoqeCK5XzEjdR1-9PBj-5" target="dhoqeCK5XzEjdR1-9PBj-4">
          <mxGeometry relative="1" as="geometry" />
        </mxCell>
        <mxCell id="dhoqeCK5XzEjdR1-9PBj-5" value="" style="rounded=1;whiteSpace=wrap;html=1;fillColor=#ffe6cc;strokeColor=#d79b00;" vertex="1" parent="1">
          <mxGeometry x="200" y="360" width="40" height="40" as="geometry" />
        </mxCell>
        <mxCell id="dhoqeCK5XzEjdR1-9PBj-18" value="" style="edgeStyle=orthogonalEdgeStyle;rounded=0;orthogonalLoop=1;jettySize=auto;html=1;fontSize=20;" edge="1" parent="1" source="dhoqeCK5XzEjdR1-9PBj-6" target="dhoqeCK5XzEjdR1-9PBj-7">
          <mxGeometry relative="1" as="geometry" />
        </mxCell>
        <mxCell id="dhoqeCK5XzEjdR1-9PBj-6" value="" style="rounded=1;whiteSpace=wrap;html=1;fillColor=#dae8fc;strokeColor=#6c8ebf;" vertex="1" parent="1">
          <mxGeometry x="400" y="160" width="40" height="40" as="geometry" />
        </mxCell>
        <mxCell id="dhoqeCK5XzEjdR1-9PBj-19" value="" style="edgeStyle=orthogonalEdgeStyle;rounded=0;orthogonalLoop=1;jettySize=auto;html=1;fontSize=20;" edge="1" parent="1" source="dhoqeCK5XzEjdR1-9PBj-7" target="dhoqeCK5XzEjdR1-9PBj-10">
          <mxGeometry relative="1" as="geometry" />
        </mxCell>
        <mxCell id="dhoqeCK5XzEjdR1-9PBj-7" value="" style="rounded=1;whiteSpace=wrap;html=1;fillColor=#dae8fc;strokeColor=#6c8ebf;" vertex="1" parent="1">
          <mxGeometry x="480" y="160" width="40" height="40" as="geometry" />
        </mxCell>
        <mxCell id="dhoqeCK5XzEjdR1-9PBj-25" value="" style="edgeStyle=orthogonalEdgeStyle;rounded=0;orthogonalLoop=1;jettySize=auto;html=1;fontSize=20;" edge="1" parent="1" source="dhoqeCK5XzEjdR1-9PBj-8" target="dhoqeCK5XzEjdR1-9PBj-6">
          <mxGeometry relative="1" as="geometry" />
        </mxCell>
        <mxCell id="dhoqeCK5XzEjdR1-9PBj-8" value="" style="rounded=1;whiteSpace=wrap;html=1;fillColor=#dae8fc;strokeColor=#6c8ebf;" vertex="1" parent="1">
          <mxGeometry x="400" y="280" width="40" height="40" as="geometry" />
        </mxCell>
        <mxCell id="dhoqeCK5XzEjdR1-9PBj-23" value="" style="edgeStyle=orthogonalEdgeStyle;rounded=0;orthogonalLoop=1;jettySize=auto;html=1;fontSize=20;" edge="1" parent="1" source="dhoqeCK5XzEjdR1-9PBj-9" target="dhoqeCK5XzEjdR1-9PBj-8">
          <mxGeometry relative="1" as="geometry" />
        </mxCell>
        <mxCell id="dhoqeCK5XzEjdR1-9PBj-9" value="" style="rounded=1;whiteSpace=wrap;html=1;fillColor=#ffe6cc;strokeColor=#d79b00;" vertex="1" parent="1">
          <mxGeometry x="400" y="360" width="40" height="40" as="geometry" />
        </mxCell>
        <mxCell id="dhoqeCK5XzEjdR1-9PBj-20" value="" style="edgeStyle=orthogonalEdgeStyle;rounded=0;orthogonalLoop=1;jettySize=auto;html=1;fontSize=20;" edge="1" parent="1" source="dhoqeCK5XzEjdR1-9PBj-10" target="dhoqeCK5XzEjdR1-9PBj-11">
          <mxGeometry relative="1" as="geometry" />
        </mxCell>
        <mxCell id="dhoqeCK5XzEjdR1-9PBj-10" value="" style="rounded=1;whiteSpace=wrap;html=1;fillColor=#dae8fc;strokeColor=#6c8ebf;" vertex="1" parent="1">
          <mxGeometry x="600" y="160" width="40" height="40" as="geometry" />
        </mxCell>
        <mxCell id="dhoqeCK5XzEjdR1-9PBj-21" value="" style="edgeStyle=orthogonalEdgeStyle;rounded=0;orthogonalLoop=1;jettySize=auto;html=1;fontSize=20;" edge="1" parent="1" source="dhoqeCK5XzEjdR1-9PBj-11" target="dhoqeCK5XzEjdR1-9PBj-12">
          <mxGeometry relative="1" as="geometry" />
        </mxCell>
        <mxCell id="dhoqeCK5XzEjdR1-9PBj-11" value="" style="rounded=1;whiteSpace=wrap;html=1;fillColor=#fff2cc;strokeColor=#d6b656;" vertex="1" parent="1">
          <mxGeometry x="600" y="80" width="40" height="40" as="geometry" />
        </mxCell>
        <mxCell id="dhoqeCK5XzEjdR1-9PBj-12" value="" style="rounded=1;whiteSpace=wrap;html=1;fillColor=#f8cecc;strokeColor=#b85450;" vertex="1" parent="1">
          <mxGeometry x="600" width="40" height="40" as="geometry" />
        </mxCell>
      </root>
    </mxGraphModel>
  </diagram>
</mxfile>
